<?xml version="1.0" encoding="UTF-8" standalone="no"?>
<!-- Created with Inkscape (http://www.inkscape.org/) -->

<svg
   xmlns:dc="http://purl.org/dc/elements/1.1/"
   xmlns:cc="http://creativecommons.org/ns#"
   xmlns:rdf="http://www.w3.org/1999/02/22-rdf-syntax-ns#"
   xmlns:svg="http://www.w3.org/2000/svg"
   xmlns="http://www.w3.org/2000/svg"
   xmlns:sodipodi="http://sodipodi.sourceforge.net/DTD/sodipodi-0.dtd"
   xmlns:inkscape="http://www.inkscape.org/namespaces/inkscape"
   version="1.1"
   id="svg10"
   width="85.333336"
   height="85.333336"
   viewBox="0 0 85.333336 85.333336"
   sodipodi:docname="baby-bat.svg"
   inkscape:version="0.92.1 r15371">
  <metadata
     id="metadata16">
    <rdf:RDF>
      <cc:Work
         rdf:about="">
        <dc:format>image/svg+xml</dc:format>
        <dc:type
           rdf:resource="http://purl.org/dc/dcmitype/StillImage" />
        <dc:title></dc:title>
      </cc:Work>
    </rdf:RDF>
  </metadata>
  <defs
     id="defs14" />
  <sodipodi:namedview
     pagecolor="#ffffff"
     bordercolor="#666666"
     borderopacity="1"
     objecttolerance="10"
     gridtolerance="10"
     guidetolerance="10"
     inkscape:pageopacity="0"
     inkscape:pageshadow="2"
     inkscape:window-width="1920"
     inkscape:window-height="1057"
     id="namedview12"
     showgrid="false"
     inkscape:zoom="10.242187"
     inkscape:cx="42.666668"
     inkscape:cy="42.666668"
     inkscape:window-x="1592"
     inkscape:window-y="-8"
     inkscape:window-maximized="1"
     inkscape:current-layer="svg10" />
  <path
     style="fill:#000000;stroke-width:1.33333337"
     d="m 22.994655,63.651989 c -7.738699,-9.777635 -8.168137,-25.266384 -0.901992,-32.532531 1.78237,-1.782368 3.240671,-4.039929 3.240671,-5.016804 0,-2.214396 3.270724,-5.054152 4.456012,-3.868863 0.482527,0.482527 0.877322,2.184328 0.877322,3.781782 0,2.650735 3.659712,7.317761 5.738321,7.317761 0.473923,0 0.501679,-1.8 0.06168,-4 -0.618043,-3.090213 -0.322268,-4 1.300413,-4 1.155227,0 2.640832,0.965675 3.301344,2.145944 1.103794,1.972371 1.267538,1.972371 2.024407,0 0.452912,-1.180269 1.817308,-2.145944 3.031989,-2.145944 1.742792,0 2.039814,0.843501 1.408514,4 -0.44,2.2 -0.257858,4 0.404761,4 2.262003,0 5.395239,-4.185022 5.395239,-7.206349 0,-1.658731 0.394795,-3.410667 0.877321,-3.893194 1.185288,-1.185289 4.456012,1.654467 4.456012,3.868863 0,0.976875 1.458302,3.234436 3.240671,5.016804 4.669186,4.669187 6.479903,12.529594 4.711882,20.454493 -1.669599,7.48373 -4.552116,12.426051 -7.247263,12.426051 -1.534454,0 -1.630108,-0.773936 -0.497292,-4.023533 1.566068,-4.492426 0.455751,-11.210731 -1.638827,-9.916211 -0.743957,0.45979 -2.179313,0.149913 -3.18968,-0.688616 -2.457905,-2.039881 -7.970479,2.309694 -5.974828,4.714306 1.625892,1.95908 0.240708,5.914054 -2.07133,5.914054 -0.943082,0 -2.085062,0.965159 -2.537733,2.144799 -0.685085,1.785304 -1.525296,1.458208 -5.012828,-1.951502 -3.235856,-3.163647 -3.850886,-4.504657 -2.701275,-5.889853 1.137032,-1.370039 0.829676,-2.357675 -1.30162,-4.182548 -2.130453,-1.824151 -3.032951,-1.996115 -3.817109,-0.727322 -0.564832,0.91392 -1.947371,1.30848 -3.072307,0.876802 -2.694058,-1.033807 -4.155908,5.314445 -2.329808,10.117456 1.435501,3.775652 -0.07732,5.987383 -2.232667,3.264155 z m 0.917279,-3.216952 c -1.902305,-5.003443 0.527779,-16.038325 2.742708,-12.454493 0.763943,1.236084 1.59402,1.220096 3.660607,-0.07051 2.271641,-1.418662 3.128905,-1.244002 5.713725,1.164123 2.569159,2.393538 2.770265,3.159538 1.295902,4.936036 -1.321874,1.59276 -1.370799,2.477218 -0.201699,3.646318 1.169099,1.169099 1.558078,1.074539 1.60363,-0.389843 0.03308,-1.063333 0.857053,-0.133333 1.831061,2.066667 l 1.770921,4 1.01195,-3.793361 c 0.647934,-2.428834 1.368181,-3.216963 2.002272,-2.190983 0.739057,1.19582 1.230882,1.213146 1.938444,0.06829 0.521465,-0.843749 0.297858,-2.317607 -0.496906,-3.275239 -1.074161,-1.294286 -0.744572,-2.54878 1.28421,-4.887982 2.394091,-2.760411 3.070573,-2.933665 5.508931,-1.410886 2.284788,1.426875 2.971642,1.425374 3.857782,-0.0084 1.718021,-2.779815 4.20093,5.385574 3.289525,10.818054 -0.731995,4.363099 -0.648715,4.50658 1.227916,2.115564 2.709934,-3.452728 3.840005,-10.182987 3.064676,-18.251997 -0.504656,-5.252048 -1.577978,-7.634251 -5.056872,-11.223559 -4.328789,-4.466176 -4.444737,-4.500278 -5.855146,-1.722145 -2.382599,4.693093 -5.693959,6.079051 -8.299348,3.473661 -1.92082,-1.920821 -1.982916,-2.589328 -0.431376,-4.644066 1.72547,-2.285078 1.691578,-2.289597 -0.706331,-0.09417 -2.387488,2.185884 -2.660464,2.185884 -5.237331,0 -2.211091,-1.875643 -2.407441,-1.902103 -1.051869,-0.141781 1.851149,2.403865 0.868737,6.502331 -1.558626,6.502331 -2.722366,0 -7.487356,-4.064538 -7.487356,-6.386716 0,-1.605635 -1.3902,-0.845306 -4.934023,2.698517 -4.465086,4.465085 -4.985385,5.740636 -5.474432,13.420986 -0.430538,6.761465 0.03595,9.616721 2.294455,14.043755 3.189495,6.251927 4.751639,7.407508 2.6926,1.991827 z"
     id="path9402"
     inkscape:connector-curvature="0" />
</svg>
